<svg xmlns="http://www.w3.org/2000/svg" width="26.043" height="34.595" viewBox="0 0 26.043 34.595">
  <g id="noun_Code_Document_1375191" data-name="noun_Code Document_1375191" transform="translate(-16.877 -6)">
    <g id="Group_497" data-name="Group 497" transform="translate(16.877 6)">
      <path id="Path_248" data-name="Path 248" d="M23.412,958.363a.777.777,0,0,0-.547.316l-5.83,7.774a.777.777,0,0,0-.158.461V992.18a.777.777,0,0,0,.777.777H42.143a.777.777,0,0,0,.777-.777V959.14a.777.777,0,0,0-.777-.777H23.485a.726.726,0,0,0-.073,0Zm.85,1.555h17.1V991.4H18.432V967.692h5.029a.8.8,0,0,0,.57-.234.79.79,0,0,0,.232-.568Zm-1.591,1.6V966.1H19.234Z" transform="translate(-16.877 -958.362)" fill="#2052eb" fill-rule="evenodd"/>
      <path id="Path_249" data-name="Path 249" d="M58.134,1002.816a.778.778,0,0,0-.449,1.409l2.636,2.053-2.6,1.737a.778.778,0,1,0,.875,1.287l3.5-2.332a.778.778,0,0,0,.037-1.263l-3.5-2.721a.778.778,0,0,0-.5-.17Z" transform="translate(-41.445 -985.34)" fill="#2052eb" fill-rule="evenodd"/>
      <path id="Path_250" data-name="Path 250" d="M34.649,1002.816a.777.777,0,0,0-.547.206l-3.11,2.721a.777.777,0,0,0,.049,1.2l3.11,2.332a.778.778,0,1,0,.923-1.239l-2.344-1.761,2.393-2.089a.777.777,0,0,0-.474-1.372Z" transform="translate(-25.285 -985.34)" fill="#2052eb" fill-rule="evenodd"/>
      <path id="Path_251" data-name="Path 251" d="M47.585,997.88a.777.777,0,0,0-.656.449l-4.276,8.94a.78.78,0,1,0,1.409.668L48.338,999a.777.777,0,0,0-.753-1.117Z" transform="translate(-32.474 -982.343)" fill="#2052eb" fill-rule="evenodd"/>
    </g>
  </g>
</svg>
